<svg width="685" height="73" viewBox="0 0 685 73" fill="none" xmlns="http://www.w3.org/2000/svg">
<g opacity="0.3" filter="url(#filter0_d_109_336)">
<mask id="path-1-outside-1_109_336" maskUnits="userSpaceOnUse" x="3" y="-1" width="679" height="67" fill="black">
<rect fill="white" x="3" y="-1" width="679" height="67"/>
<path d="M74.5331 37.704C73.9347 42.9808 72.1123 47.632 69.0659 51.6576C66.0195 55.6288 61.9939 58.7296 56.9891 60.96C51.9843 63.1904 46.2995 64.3056 39.9347 64.3056C32.8627 64.3056 26.6611 62.9728 21.3299 60.3072C16.0531 57.6416 11.9459 53.9152 9.00833 49.128C6.07073 44.3408 4.60193 38.7648 4.60193 32.4C4.60193 26.0352 6.07073 20.4592 9.00833 15.672C11.9459 10.8848 16.0531 7.1584 21.3299 4.4928C26.6611 1.8272 32.8627 0.494399 39.9347 0.494399C46.2995 0.494399 51.9843 1.6096 56.9891 3.84C61.9939 6.0704 66.0195 9.1712 69.0659 13.1424C72.1123 17.1136 73.9347 21.7648 74.5331 27.096H59.0291C58.4851 24.3216 57.3699 21.9552 55.6835 19.9968C54.0515 18.0384 51.8755 16.5424 49.1555 15.5088C46.4899 14.4208 43.3891 13.8768 39.8531 13.8768C35.7731 13.8768 32.2643 14.6384 29.3267 16.1616C26.3891 17.6304 24.1315 19.752 22.5539 22.5264C20.9763 25.3008 20.1875 28.592 20.1875 32.4C20.1875 36.208 20.9763 39.4992 22.5539 42.2736C24.1315 45.048 26.3891 47.1968 29.3267 48.72C32.2643 50.1888 35.7731 50.9232 39.8531 50.9232C43.3891 50.9232 46.4899 50.4064 49.1555 49.3728C51.8755 48.3392 54.0515 46.8432 55.6835 44.8848C57.3699 42.9264 58.4851 40.5328 59.0291 37.704H74.5331ZM116.37 64.3056C109.19 64.3056 102.879 62.9728 97.4391 60.3072C92.0535 57.6416 87.8647 53.9152 84.8727 49.128C81.8807 44.3408 80.3847 38.7648 80.3847 32.4C80.3847 26.0352 81.8807 20.4592 84.8727 15.672C87.8647 10.8848 92.0535 7.1584 97.4391 4.4928C102.879 1.8272 109.19 0.494399 116.37 0.494399C123.551 0.494399 129.834 1.8272 135.22 4.4928C140.66 7.1584 144.876 10.8848 147.868 15.672C150.914 20.4592 152.438 26.0352 152.438 32.4C152.438 38.7648 150.914 44.3408 147.868 49.128C144.876 53.9152 140.66 57.6416 135.22 60.3072C129.834 62.9728 123.551 64.3056 116.37 64.3056ZM116.37 50.5152C120.614 50.5152 124.258 49.808 127.305 48.3936C130.351 46.9248 132.69 44.8304 134.322 42.1104C136.009 39.3904 136.852 36.1536 136.852 32.4C136.852 28.6464 136.009 25.4096 134.322 22.6896C132.69 19.9696 130.351 17.9024 127.305 16.488C124.258 15.0192 120.614 14.2848 116.37 14.2848C112.182 14.2848 108.564 15.0192 105.518 16.488C102.471 17.9024 100.105 19.9696 98.4183 22.6896C96.7319 25.4096 95.8887 28.6464 95.8887 32.4C95.8887 36.1536 96.7319 39.3904 98.4183 42.1104C100.105 44.8304 102.471 46.9248 105.518 48.3936C108.564 49.808 112.182 50.5152 116.37 50.5152ZM218.284 52.4736L213.306 53.3712V1.8H228.239V63H208.818L171.527 11.4288L176.504 10.5312V63H161.572V1.8H181.564L218.284 52.4736ZM259.483 8.6544H274.905V63H259.483V8.6544ZM235.656 1.8H298.732V15.4272H235.656V1.8ZM307.1 50.6784V38.1936H349.369V50.6784H307.1ZM338.598 1.8L366.831 63H350.43L326.195 8.2464H330.927L306.774 63H290.291L318.606 1.8H338.598ZM436.633 37.704C436.035 42.9808 434.212 47.632 431.166 51.6576C428.12 55.6288 424.094 58.7296 419.089 60.96C414.084 63.1904 408.4 64.3056 402.035 64.3056C394.963 64.3056 388.761 62.9728 383.43 60.3072C378.153 57.6416 374.046 53.9152 371.108 49.128C368.171 44.3408 366.702 38.7648 366.702 32.4C366.702 26.0352 368.171 20.4592 371.108 15.672C374.046 10.8848 378.153 7.1584 383.43 4.4928C388.761 1.8272 394.963 0.494399 402.035 0.494399C408.4 0.494399 414.084 1.6096 419.089 3.84C424.094 6.0704 428.12 9.1712 431.166 13.1424C434.212 17.1136 436.035 21.7648 436.633 27.096H421.129C420.585 24.3216 419.47 21.9552 417.784 19.9968C416.152 18.0384 413.976 16.5424 411.256 15.5088C408.59 14.4208 405.489 13.8768 401.953 13.8768C397.873 13.8768 394.364 14.6384 391.427 16.1616C388.489 17.6304 386.232 19.752 384.654 22.5264C383.076 25.3008 382.288 28.592 382.288 32.4C382.288 36.208 383.076 39.4992 384.654 42.2736C386.232 45.048 388.489 47.1968 391.427 48.72C394.364 50.1888 397.873 50.9232 401.953 50.9232C405.489 50.9232 408.59 50.4064 411.256 49.3728C413.976 48.3392 416.152 46.8432 417.784 44.8848C419.47 42.9264 420.585 40.5328 421.129 37.704H436.633ZM462.128 8.6544H477.55V63H462.128V8.6544ZM438.301 1.8H501.378V15.4272H438.301V1.8ZM614.42 1.8V63H599.732V7.1856L603.322 7.4304L578.434 63H562.685L537.797 7.5936L541.388 7.2672V63H526.7V1.8H550.445L573.701 55.3296H567.5L590.674 1.8H614.42ZM677.799 26.688V38.112H633.49V26.688H677.799ZM643.935 32.4L639.855 57.696L633.408 50.352H680.41V63H624.432L629.165 32.4L624.432 1.8H680.002V14.448H633.408L639.855 7.104L643.935 32.4Z"/>
</mask>
<path d="M74.5331 37.704L75.5268 37.8167L75.6529 36.704H74.5331V37.704ZM69.0659 51.6576L69.8594 52.2663L69.8633 52.261L69.0659 51.6576ZM56.9891 60.96L56.5821 60.0466L56.9891 60.96ZM21.3299 60.3072L20.879 61.1998L20.8827 61.2016L21.3299 60.3072ZM9.00833 49.128L8.156 49.651L9.00833 49.128ZM9.00833 15.672L8.156 15.149L9.00833 15.672ZM21.3299 4.4928L20.8827 3.59837L20.879 3.60022L21.3299 4.4928ZM69.0659 13.1424L68.2725 13.7511L69.0659 13.1424ZM74.5331 27.096V28.096H75.6516L75.5269 26.9845L74.5331 27.096ZM59.0291 27.096L58.0478 27.2884L58.2062 28.096H59.0291V27.096ZM55.6835 19.9968L54.9153 20.637L54.9205 20.6432L54.9258 20.6493L55.6835 19.9968ZM49.1555 15.5088L48.7776 16.4346L48.7889 16.4393L48.8003 16.4436L49.1555 15.5088ZM29.3267 16.1616L29.7739 17.056L29.7805 17.0527L29.787 17.0494L29.3267 16.1616ZM22.5539 22.5264L23.4232 23.0207L22.5539 22.5264ZM22.5539 42.2736L21.6846 42.7679L22.5539 42.2736ZM29.3267 48.72L28.8664 49.6078L28.8729 49.6111L28.8795 49.6144L29.3267 48.72ZM49.1555 49.3728L48.8003 48.438L48.794 48.4404L49.1555 49.3728ZM55.6835 44.8848L54.9258 44.2323L54.9205 44.2384L54.9153 44.2446L55.6835 44.8848ZM59.0291 37.704V36.704H58.2031L58.0471 37.5152L59.0291 37.704ZM73.5395 37.5913C72.9602 42.6995 71.201 47.1791 68.2685 51.0542L69.8633 52.261C73.0237 48.0849 74.9092 43.2621 75.5268 37.8167L73.5395 37.5913ZM68.2725 51.0489C65.3369 54.8757 61.4495 57.8774 56.5821 60.0466L57.3962 61.8734C62.5384 59.5818 66.7022 56.3819 69.8594 52.2663L68.2725 51.0489ZM56.5821 60.0466C51.7244 62.2114 46.1818 63.3056 39.9347 63.3056V65.3056C46.4173 65.3056 52.2442 64.1694 57.3962 61.8734L56.5821 60.0466ZM39.9347 63.3056C32.9892 63.3056 26.9459 61.9971 21.7771 59.4128L20.8827 61.2016C26.3764 63.9485 32.7362 65.3056 39.9347 65.3056V63.3056ZM21.7808 59.4146C16.6604 56.828 12.6961 53.2257 9.86065 48.605L8.156 49.651C11.1958 54.6047 15.4459 58.4552 20.879 61.1998L21.7808 59.4146ZM9.86065 48.605C7.03199 43.9953 5.60193 38.6054 5.60193 32.4H3.60193C3.60193 38.9242 5.10946 44.6863 8.156 49.651L9.86065 48.605ZM5.60193 32.4C5.60193 26.1946 7.03199 20.8047 9.86065 16.195L8.156 15.149C5.10946 20.1137 3.60193 25.8758 3.60193 32.4H5.60193ZM9.86065 16.195C12.6961 11.5743 16.6604 7.97198 21.7808 5.38538L20.879 3.60022C15.4459 6.34482 11.1958 10.1953 8.156 15.149L9.86065 16.195ZM21.7771 5.38723C26.9459 2.80286 32.9892 1.4944 39.9347 1.4944V-0.505602C32.7362 -0.505602 26.3764 0.851538 20.8827 3.59837L21.7771 5.38723ZM39.9347 1.4944C46.1818 1.4944 51.7244 2.58859 56.5821 4.7534L57.3962 2.9266C52.2442 0.63061 46.4173 -0.505602 39.9347 -0.505602V1.4944ZM56.5821 4.7534C61.4495 6.92256 65.3369 9.92428 68.2725 13.7511L69.8594 12.5337C66.7022 8.41812 62.5384 5.21824 57.3962 2.9266L56.5821 4.7534ZM68.2725 13.7511C71.2001 17.5675 72.9598 22.0437 73.5394 27.2075L75.5269 26.9845C74.9097 21.4859 73.0245 16.6597 69.8594 12.5337L68.2725 13.7511ZM74.5331 26.096H59.0291V28.096H74.5331V26.096ZM60.0104 26.9036C59.4363 23.9755 58.2513 21.4462 56.4413 19.3443L54.9258 20.6493C56.4886 22.4642 57.534 24.6677 58.0478 27.2884L60.0104 26.9036ZM56.4517 19.3566C54.6949 17.2484 52.3684 15.6599 49.5107 14.574L48.8003 16.4436C51.3827 17.4249 53.4081 18.8284 54.9153 20.637L56.4517 19.3566ZM49.5334 14.583C46.7239 13.4362 43.49 12.8768 39.8531 12.8768V14.8768C43.2882 14.8768 46.256 15.4054 48.7776 16.4346L49.5334 14.583ZM39.8531 12.8768C35.6496 12.8768 31.9756 13.6617 28.8664 15.2738L29.787 17.0494C32.553 15.6151 35.8966 14.8768 39.8531 14.8768V12.8768ZM28.8795 15.2672C25.7702 16.8218 23.3632 19.0802 21.6846 22.0321L23.4232 23.0207C24.8999 20.4238 27.0081 18.4389 29.7739 17.056L28.8795 15.2672ZM21.6846 22.0321C20.0062 24.9838 19.1875 28.4522 19.1875 32.4H21.1875C21.1875 28.7318 21.9465 25.6178 23.4232 23.0207L21.6846 22.0321ZM19.1875 32.4C19.1875 36.3478 20.0062 39.8162 21.6846 42.7679L23.4232 41.7793C21.9465 39.1822 21.1875 36.0682 21.1875 32.4H19.1875ZM21.6846 42.7679C23.3613 45.7166 25.764 47.9991 28.8664 49.6078L29.787 47.8322C27.0142 46.3945 24.9017 44.3794 23.4232 41.7793L21.6846 42.7679ZM28.8795 49.6144C31.9855 51.1674 35.6547 51.9232 39.8531 51.9232V49.9232C35.8916 49.9232 32.5431 49.2102 29.7739 47.8256L28.8795 49.6144ZM39.8531 51.9232C43.4845 51.9232 46.7124 51.3927 49.5171 50.3052L48.794 48.4404C46.2674 49.4201 43.2938 49.9232 39.8531 49.9232V51.9232ZM49.5107 50.3076C52.3684 49.2217 54.6949 47.6332 56.4517 45.525L54.9153 44.2446C53.4081 46.0532 51.3827 47.4567 48.8003 48.438L49.5107 50.3076ZM56.4413 45.5373C58.2543 43.4319 59.438 40.873 60.0111 37.8928L58.0471 37.5152C57.5322 40.1926 56.4856 42.4209 54.9258 44.2323L56.4413 45.5373ZM59.0291 38.704H74.5331V36.704H59.0291V38.704ZM97.4391 60.3072L96.9955 61.2034L96.9991 61.2052L97.4391 60.3072ZM84.8727 49.128L84.0247 49.658L84.8727 49.128ZM84.8727 15.672L84.0247 15.142L84.8727 15.672ZM97.4391 4.4928L96.9991 3.5948L96.9956 3.59657L97.4391 4.4928ZM135.22 4.4928L134.776 5.38904L134.78 5.39079L135.22 4.4928ZM147.868 15.672L147.02 16.202L147.024 16.2089L147.868 15.672ZM147.868 49.128L147.024 48.5911L147.02 48.598L147.868 49.128ZM135.22 60.3072L134.78 59.4092L134.776 59.411L135.22 60.3072ZM127.305 48.3936L127.726 49.3006L127.732 49.2975L127.739 49.2944L127.305 48.3936ZM134.322 42.1104L133.472 41.5835L133.469 41.5897L133.465 41.5959L134.322 42.1104ZM134.322 22.6896L133.465 23.2041L133.469 23.2103L133.472 23.2165L134.322 22.6896ZM127.305 16.488L126.87 17.3888L126.877 17.3919L126.884 17.395L127.305 16.488ZM105.518 16.488L105.939 17.395L105.945 17.3919L105.952 17.3888L105.518 16.488ZM98.4183 22.6896L99.2682 23.2165L98.4183 22.6896ZM98.4183 42.1104L99.2682 41.5835L98.4183 42.1104ZM105.518 48.3936L105.083 49.2944L105.09 49.2975L105.096 49.3006L105.518 48.3936ZM116.37 63.3056C109.314 63.3056 103.159 61.9964 97.8792 59.4092L96.9991 61.2052C102.599 63.9492 109.065 65.3056 116.37 65.3056V63.3056ZM97.8827 59.411C92.6521 56.8221 88.6081 53.2178 85.7207 48.598L84.0247 49.658C87.1214 54.6126 91.455 58.4611 96.9956 61.2034L97.8827 59.411ZM85.7207 48.598C82.8403 43.9893 81.3847 38.6019 81.3847 32.4H79.3847C79.3847 38.9277 80.9212 44.6923 84.0247 49.658L85.7207 48.598ZM81.3847 32.4C81.3847 26.1981 82.8403 20.8107 85.7207 16.202L84.0247 15.142C80.9212 20.1077 79.3847 25.8723 79.3847 32.4H81.3847ZM85.7207 16.202C88.6081 11.5822 92.6521 7.97792 97.8827 5.38903L96.9956 3.59657C91.455 6.33887 87.1214 10.1874 84.0247 15.142L85.7207 16.202ZM97.8792 5.39079C103.159 2.80364 109.314 1.4944 116.37 1.4944V-0.505602C109.065 -0.505602 102.599 0.850756 96.9991 3.59481L97.8792 5.39079ZM116.37 1.4944C123.427 1.4944 129.553 2.80375 134.776 5.38903L135.664 3.59657C130.116 0.850651 123.675 -0.505602 116.37 -0.505602V1.4944ZM134.78 5.39079C140.065 7.98048 144.134 11.5848 147.02 16.202L148.716 15.142C145.618 10.1848 141.255 6.33632 135.66 3.59481L134.78 5.39079ZM147.024 16.2089C149.956 20.8166 151.438 26.2015 151.438 32.4H153.438C153.438 25.8689 151.872 20.1018 148.712 15.1351L147.024 16.2089ZM151.438 32.4C151.438 38.5985 149.956 43.9834 147.024 48.5911L148.712 49.6649C151.872 44.6982 153.438 38.9311 153.438 32.4H151.438ZM147.02 48.598C144.134 53.2152 140.065 56.8195 134.78 59.4092L135.66 61.2052C141.255 58.4637 145.618 54.6152 148.716 49.658L147.02 48.598ZM134.776 59.411C129.553 61.9963 123.427 63.3056 116.37 63.3056V65.3056C123.675 65.3056 130.116 63.9493 135.664 61.2034L134.776 59.411ZM116.37 51.5152C120.722 51.5152 124.518 50.7902 127.726 49.3006L126.884 47.4866C123.999 48.8258 120.505 49.5152 116.37 49.5152V51.5152ZM127.739 49.2944C130.949 47.7467 133.441 45.5234 135.18 42.6249L133.465 41.5959C131.94 44.1374 129.753 46.1029 126.87 47.4928L127.739 49.2944ZM135.172 42.6373C136.973 39.7335 137.852 36.3071 137.852 32.4H135.852C135.852 36.0001 135.045 39.0473 133.472 41.5835L135.172 42.6373ZM137.852 32.4C137.852 28.4929 136.973 25.0665 135.172 22.1627L133.472 23.2165C135.045 25.7527 135.852 28.7999 135.852 32.4H137.852ZM135.18 22.1751C133.439 19.2732 130.942 17.0744 127.726 15.581L126.884 17.395C129.76 18.7304 131.942 20.666 133.465 23.2041L135.18 22.1751ZM127.739 15.5872C124.527 14.0387 120.727 13.2848 116.37 13.2848V15.2848C120.5 15.2848 123.989 15.9997 126.87 17.3888L127.739 15.5872ZM116.37 13.2848C112.066 13.2848 108.293 14.0394 105.083 15.5872L105.952 17.3888C108.834 15.999 112.297 15.2848 116.37 15.2848V13.2848ZM105.096 15.581C101.882 17.0733 99.3629 19.2684 97.5684 22.1627L99.2682 23.2165C100.847 20.6708 103.06 18.7315 105.939 17.395L105.096 15.581ZM97.5684 22.1627C95.768 25.0665 94.8887 28.4929 94.8887 32.4H96.8887C96.8887 28.7999 97.6958 25.7527 99.2682 23.2165L97.5684 22.1627ZM94.8887 32.4C94.8887 36.3071 95.768 39.7335 97.5684 42.6373L99.2682 41.5835C97.6958 39.0473 96.8887 36.0001 96.8887 32.4H94.8887ZM97.5684 42.6373C99.3608 45.5283 101.876 47.7479 105.083 49.2944L105.952 47.4928C103.067 46.1017 100.849 44.1325 99.2682 41.5835L97.5684 42.6373ZM105.096 49.3006C108.303 50.7895 112.071 51.5152 116.37 51.5152V49.5152C112.292 49.5152 108.825 48.8265 105.939 47.4866L105.096 49.3006ZM218.284 52.4736L218.461 53.4577L220.027 53.1753L219.093 51.8868L218.284 52.4736ZM213.306 53.3712H212.306V54.5677L213.484 54.3553L213.306 53.3712ZM213.306 1.8V0.799995H212.306V1.8H213.306ZM228.239 1.8H229.239V0.799995H228.239V1.8ZM228.239 63V64H229.239V63H228.239ZM208.818 63L208.008 63.586L208.307 64H208.818V63ZM171.527 11.4288L171.349 10.4447L169.785 10.7267L170.716 12.0148L171.527 11.4288ZM176.504 10.5312H177.504V9.33474L176.327 9.54707L176.504 10.5312ZM176.504 63V64H177.504V63H176.504ZM161.572 63H160.572V64H161.572V63ZM161.572 1.8V0.799995H160.572V1.8H161.572ZM181.564 1.8L182.373 1.21322L182.074 0.799995H181.564V1.8ZM218.106 51.4895L213.129 52.3871L213.484 54.3553L218.461 53.4577L218.106 51.4895ZM214.306 53.3712V1.8H212.306V53.3712H214.306ZM213.306 2.8H228.239V0.799995H213.306V2.8ZM227.239 1.8V63H229.239V1.8H227.239ZM228.239 62H208.818V64H228.239V62ZM209.628 62.414L172.337 10.8428L170.716 12.0148L208.008 63.586L209.628 62.414ZM171.704 12.4129L176.682 11.5153L176.327 9.54707L171.349 10.4447L171.704 12.4129ZM175.504 10.5312V63H177.504V10.5312H175.504ZM176.504 62H161.572V64H176.504V62ZM162.572 63V1.8H160.572V63H162.572ZM161.572 2.8H181.564V0.799995H161.572V2.8ZM180.754 2.38677L217.474 53.0604L219.093 51.8868L182.373 1.21322L180.754 2.38677ZM259.483 8.6544V7.6544H258.483V8.6544H259.483ZM274.905 8.6544H275.905V7.6544H274.905V8.6544ZM274.905 63V64H275.905V63H274.905ZM259.483 63H258.483V64H259.483V63ZM235.656 1.8V0.799995H234.656V1.8H235.656ZM298.732 1.8H299.732V0.799995H298.732V1.8ZM298.732 15.4272V16.4272H299.732V15.4272H298.732ZM235.656 15.4272H234.656V16.4272H235.656V15.4272ZM259.483 9.6544H274.905V7.6544H259.483V9.6544ZM273.905 8.6544V63H275.905V8.6544H273.905ZM274.905 62H259.483V64H274.905V62ZM260.483 63V8.6544H258.483V63H260.483ZM235.656 2.8H298.732V0.799995H235.656V2.8ZM297.732 1.8V15.4272H299.732V1.8H297.732ZM298.732 14.4272H235.656V16.4272H298.732V14.4272ZM236.656 15.4272V1.8H234.656V15.4272H236.656ZM307.1 50.6784H306.1V51.6784H307.1V50.6784ZM307.1 38.1936V37.1936H306.1V38.1936H307.1ZM349.369 38.1936H350.369V37.1936H349.369V38.1936ZM349.369 50.6784V51.6784H350.369V50.6784H349.369ZM338.598 1.8L339.506 1.38109L339.238 0.799995H338.598V1.8ZM366.831 63V64H368.394L367.739 62.5811L366.831 63ZM350.43 63L349.515 63.4047L349.779 64H350.43V63ZM326.195 8.2464V7.2464H324.658L325.28 8.65115L326.195 8.2464ZM330.927 8.2464L331.842 8.65001L332.461 7.2464H330.927V8.2464ZM306.774 63V64H307.426L307.689 63.4036L306.774 63ZM290.291 63L289.383 62.5801L288.726 64H290.291V63ZM318.606 1.8V0.799995H317.967L317.698 1.38009L318.606 1.8ZM308.1 50.6784V38.1936H306.1V50.6784H308.1ZM307.1 39.1936H349.369V37.1936H307.1V39.1936ZM348.369 38.1936V50.6784H350.369V38.1936H348.369ZM349.369 49.6784H307.1V51.6784H349.369V49.6784ZM337.69 2.2189L365.923 63.4189L367.739 62.5811L339.506 1.38109L337.69 2.2189ZM366.831 62H350.43V64H366.831V62ZM351.344 62.5953L327.109 7.84165L325.28 8.65115L349.515 63.4047L351.344 62.5953ZM326.195 9.2464H330.927V7.2464H326.195V9.2464ZM330.012 7.84279L305.859 62.5964L307.689 63.4036L331.842 8.65001L330.012 7.84279ZM306.774 62H290.291V64H306.774V62ZM291.198 63.4199L319.513 2.2199L317.698 1.38009L289.383 62.5801L291.198 63.4199ZM318.606 2.8H338.598V0.799995H318.606V2.8ZM436.633 37.704L437.627 37.8167L437.753 36.704H436.633V37.704ZM431.166 51.6576L431.959 52.2663L431.963 52.261L431.166 51.6576ZM419.089 60.96L418.682 60.0466L419.089 60.96ZM383.43 60.3072L382.979 61.1998L382.983 61.2016L383.43 60.3072ZM371.108 49.128L370.256 49.651L371.108 49.128ZM371.108 15.672L370.256 15.149L371.108 15.672ZM383.43 4.4928L382.983 3.59837L382.979 3.60022L383.43 4.4928ZM431.166 13.1424L430.372 13.7511L431.166 13.1424ZM436.633 27.096V28.096H437.752L437.627 26.9845L436.633 27.096ZM421.129 27.096L420.148 27.2884L420.306 28.096H421.129V27.096ZM417.784 19.9968L417.015 20.637L417.02 20.6432L417.026 20.6493L417.784 19.9968ZM411.256 15.5088L410.878 16.4346L410.889 16.4393L410.9 16.4436L411.256 15.5088ZM391.427 16.1616L391.874 17.056L391.881 17.0527L391.887 17.0494L391.427 16.1616ZM384.654 22.5264L385.523 23.0207L384.654 22.5264ZM384.654 42.2736L383.785 42.7679L384.654 42.2736ZM391.427 48.72L390.966 49.6078L390.973 49.6111L390.98 49.6144L391.427 48.72ZM411.256 49.3728L410.9 48.438L410.894 48.4404L411.256 49.3728ZM417.784 44.8848L417.026 44.2323L417.02 44.2384L417.015 44.2446L417.784 44.8848ZM421.129 37.704V36.704H420.303L420.147 37.5152L421.129 37.704ZM435.639 37.5913C435.06 42.6995 433.301 47.1791 430.369 51.0542L431.963 52.261C435.124 48.0849 437.009 43.2621 437.627 37.8167L435.639 37.5913ZM430.372 51.0489C427.437 54.8757 423.549 57.8774 418.682 60.0466L419.496 61.8734C424.638 59.5818 428.802 56.3819 431.959 52.2663L430.372 51.0489ZM418.682 60.0466C413.824 62.2114 408.282 63.3056 402.035 63.3056V65.3056C408.517 65.3056 414.344 64.1694 419.496 61.8734L418.682 60.0466ZM402.035 63.3056C395.089 63.3056 389.046 61.9971 383.877 59.4128L382.983 61.2016C388.476 63.9485 394.836 65.3056 402.035 65.3056V63.3056ZM383.881 59.4146C378.76 56.828 374.796 53.2257 371.961 48.605L370.256 49.651C373.296 54.6047 377.546 58.4552 382.979 61.1998L383.881 59.4146ZM371.961 48.605C369.132 43.9953 367.702 38.6054 367.702 32.4H365.702C365.702 38.9242 367.209 44.6863 370.256 49.651L371.961 48.605ZM367.702 32.4C367.702 26.1946 369.132 20.8047 371.961 16.195L370.256 15.149C367.209 20.1137 365.702 25.8758 365.702 32.4H367.702ZM371.961 16.195C374.796 11.5743 378.76 7.97198 383.881 5.38538L382.979 3.60022C377.546 6.34482 373.296 10.1953 370.256 15.149L371.961 16.195ZM383.877 5.38723C389.046 2.80286 395.089 1.4944 402.035 1.4944V-0.505602C394.836 -0.505602 388.476 0.851538 382.983 3.59837L383.877 5.38723ZM402.035 1.4944C408.282 1.4944 413.824 2.58859 418.682 4.7534L419.496 2.9266C414.344 0.63061 408.517 -0.505602 402.035 -0.505602V1.4944ZM418.682 4.7534C423.549 6.92256 427.437 9.92428 430.372 13.7511L431.959 12.5337C428.802 8.41812 424.638 5.21824 419.496 2.9266L418.682 4.7534ZM430.372 13.7511C433.3 17.5675 435.06 22.0437 435.639 27.2075L437.627 26.9845C437.01 21.4859 435.125 16.6597 431.959 12.5337L430.372 13.7511ZM436.633 26.096H421.129V28.096H436.633V26.096ZM422.11 26.9036C421.536 23.9755 420.351 21.4462 418.541 19.3443L417.026 20.6493C418.589 22.4642 419.634 24.6677 420.148 27.2884L422.11 26.9036ZM418.552 19.3566C416.795 17.2484 414.468 15.6599 411.611 14.574L410.9 16.4436C413.483 17.4249 415.508 18.8284 417.015 20.637L418.552 19.3566ZM411.633 14.583C408.824 13.4362 405.59 12.8768 401.953 12.8768V14.8768C405.388 14.8768 408.356 15.4054 410.878 16.4346L411.633 14.583ZM401.953 12.8768C397.75 12.8768 394.076 13.6617 390.966 15.2738L391.887 17.0494C394.653 15.6151 397.997 14.8768 401.953 14.8768V12.8768ZM390.98 15.2672C387.87 16.8218 385.463 19.0802 383.785 22.0321L385.523 23.0207C387 20.4238 389.108 18.4389 391.874 17.056L390.98 15.2672ZM383.785 22.0321C382.106 24.9838 381.288 28.4522 381.288 32.4H383.288C383.288 28.7318 384.046 25.6178 385.523 23.0207L383.785 22.0321ZM381.288 32.4C381.288 36.3478 382.106 39.8162 383.785 42.7679L385.523 41.7793C384.046 39.1822 383.288 36.0682 383.288 32.4H381.288ZM383.785 42.7679C385.461 45.7166 387.864 47.9991 390.966 49.6078L391.887 47.8322C389.114 46.3945 387.002 44.3794 385.523 41.7793L383.785 42.7679ZM390.98 49.6144C394.086 51.1674 397.755 51.9232 401.953 51.9232V49.9232C397.992 49.9232 394.643 49.2102 391.874 47.8256L390.98 49.6144ZM401.953 51.9232C405.585 51.9232 408.812 51.3927 411.617 50.3052L410.894 48.4404C408.367 49.4201 405.394 49.9232 401.953 49.9232V51.9232ZM411.611 50.3076C414.468 49.2217 416.795 47.6332 418.552 45.525L417.015 44.2446C415.508 46.0532 413.483 47.4567 410.9 48.438L411.611 50.3076ZM418.541 45.5373C420.354 43.4319 421.538 40.873 422.111 37.8928L420.147 37.5152C419.632 40.1926 418.586 42.4209 417.026 44.2323L418.541 45.5373ZM421.129 38.704H436.633V36.704H421.129V38.704ZM462.128 8.6544V7.6544H461.128V8.6544H462.128ZM477.55 8.6544H478.55V7.6544H477.55V8.6544ZM477.55 63V64H478.55V63H477.55ZM462.128 63H461.128V64H462.128V63ZM438.301 1.8V0.799995H437.301V1.8H438.301ZM501.378 1.8H502.378V0.799995H501.378V1.8ZM501.378 15.4272V16.4272H502.378V15.4272H501.378ZM438.301 15.4272H437.301V16.4272H438.301V15.4272ZM462.128 9.6544H477.55V7.6544H462.128V9.6544ZM476.55 8.6544V63H478.55V8.6544H476.55ZM477.55 62H462.128V64H477.55V62ZM463.128 63V8.6544H461.128V63H463.128ZM438.301 2.8H501.378V0.799995H438.301V2.8ZM500.378 1.8V15.4272H502.378V1.8H500.378ZM501.378 14.4272H438.301V16.4272H501.378V14.4272ZM439.301 15.4272V1.8H437.301V15.4272H439.301ZM614.42 1.8H615.42V0.799995H614.42V1.8ZM614.42 63V64H615.42V63H614.42ZM599.732 63H598.732V64H599.732V63ZM599.732 7.1856L599.8 6.18792L598.732 6.1151V7.1856H599.732ZM603.322 7.4304L604.235 7.83915L604.821 6.53027L603.39 6.43271L603.322 7.4304ZM578.434 63V64H579.082L579.347 63.4087L578.434 63ZM562.685 63L561.773 63.4098L562.038 64H562.685V63ZM537.797 7.5936L537.707 6.59771L536.311 6.72462L536.885 8.00335L537.797 7.5936ZM541.388 7.2672H542.388V6.17216L541.297 6.27131L541.388 7.2672ZM541.388 63V64H542.388V63H541.388ZM526.7 63H525.7V64H526.7V63ZM526.7 1.8V0.799995H525.7V1.8H526.7ZM550.445 1.8L551.362 1.40153L551.101 0.799995H550.445V1.8ZM573.701 55.3296V56.3296H575.226L574.619 54.9311L573.701 55.3296ZM567.5 55.3296L566.582 54.9323L565.977 56.3296H567.5V55.3296ZM590.674 1.8V0.799995H590.017L589.756 1.4027L590.674 1.8ZM613.42 1.8V63H615.42V1.8H613.42ZM614.42 62H599.732V64H614.42V62ZM600.732 63V7.1856H598.732V63H600.732ZM599.664 8.18328L603.254 8.42808L603.39 6.43271L599.8 6.18792L599.664 8.18328ZM602.409 7.02165L577.521 62.5913L579.347 63.4087L604.235 7.83915L602.409 7.02165ZM578.434 62H562.685V64H578.434V62ZM563.598 62.5902L538.71 7.18385L536.885 8.00335L561.773 63.4098L563.598 62.5902ZM537.888 8.58949L541.478 8.26309L541.297 6.27131L537.707 6.59771L537.888 8.58949ZM540.388 7.2672V63H542.388V7.2672H540.388ZM541.388 62H526.7V64H541.388V62ZM527.7 63V1.8H525.7V63H527.7ZM526.7 2.8H550.445V0.799995H526.7V2.8ZM549.528 2.19847L572.784 55.7281L574.619 54.9311L551.362 1.40153L549.528 2.19847ZM573.701 54.3296H567.5V56.3296H573.701V54.3296ZM568.417 55.7269L591.592 2.19729L589.756 1.4027L566.582 54.9323L568.417 55.7269ZM590.674 2.8H614.42V0.799995H590.674V2.8ZM677.799 26.688H678.799V25.688H677.799V26.688ZM677.799 38.112V39.112H678.799V38.112H677.799ZM633.49 38.112H632.49V39.112H633.49V38.112ZM633.49 26.688V25.688H632.49V26.688H633.49ZM643.935 32.4L644.922 32.5592L644.948 32.4L644.922 32.2408L643.935 32.4ZM639.855 57.696L639.103 58.3557L640.504 59.9514L640.842 57.8552L639.855 57.696ZM633.408 50.352V49.352H631.2L632.657 51.0117L633.408 50.352ZM680.41 50.352H681.41V49.352H680.41V50.352ZM680.41 63V64H681.41V63H680.41ZM624.432 63L623.444 62.8472L623.266 64H624.432V63ZM629.165 32.4L630.153 32.5528L630.177 32.4L630.153 32.2472L629.165 32.4ZM624.432 1.8V0.799995H623.266L623.444 1.95284L624.432 1.8ZM680.002 1.8H681.002V0.799995H680.002V1.8ZM680.002 14.448V15.448H681.002V14.448H680.002ZM633.408 14.448L632.657 13.7883L631.2 15.448H633.408V14.448ZM639.855 7.104L640.842 6.94476L640.504 4.84859L639.103 6.44431L639.855 7.104ZM676.799 26.688V38.112H678.799V26.688H676.799ZM677.799 37.112H633.49V39.112H677.799V37.112ZM634.49 38.112V26.688H632.49V38.112H634.49ZM633.49 27.688H677.799V25.688H633.49V27.688ZM642.947 32.2408L638.867 57.5368L640.842 57.8552L644.922 32.5592L642.947 32.2408ZM640.606 57.0363L634.16 49.6923L632.657 51.0117L639.103 58.3557L640.606 57.0363ZM633.408 51.352H680.41V49.352H633.408V51.352ZM679.41 50.352V63H681.41V50.352H679.41ZM680.41 62H624.432V64H680.41V62ZM625.421 63.1528L630.153 32.5528L628.177 32.2472L623.444 62.8472L625.421 63.1528ZM630.153 32.2472L625.421 1.64715L623.444 1.95284L628.177 32.5528L630.153 32.2472ZM624.432 2.8H680.002V0.799995H624.432V2.8ZM679.002 1.8V14.448H681.002V1.8H679.002ZM680.002 13.448H633.408V15.448H680.002V13.448ZM634.16 15.1077L640.606 7.76368L639.103 6.44431L632.657 13.7883L634.16 15.1077ZM638.867 7.26323L642.947 32.5592L644.922 32.2408L640.842 6.94476L638.867 7.26323Z" fill="url(#paint0_linear_109_336)" mask="url(#path-1-outside-1_109_336)"/>
</g>
<defs>
<filter id="filter0_d_109_336" x="0.601807" y="0.494385" width="683.808" height="71.8113" filterUnits="userSpaceOnUse" color-interpolation-filters="sRGB">
<feFlood flood-opacity="0" result="BackgroundImageFix"/>
<feColorMatrix in="SourceAlpha" type="matrix" values="0 0 0 0 0 0 0 0 0 0 0 0 0 0 0 0 0 0 127 0" result="hardAlpha"/>
<feOffset dy="4"/>
<feGaussianBlur stdDeviation="2"/>
<feComposite in2="hardAlpha" operator="out"/>
<feColorMatrix type="matrix" values="0 0 0 0 0 0 0 0 0 0 0 0 0 0 0 0 0 0 0.25 0"/>
<feBlend mode="normal" in2="BackgroundImageFix" result="effect1_dropShadow_109_336"/>
<feBlend mode="normal" in="SourceGraphic" in2="effect1_dropShadow_109_336" result="shape"/>
</filter>
<linearGradient id="paint0_linear_109_336" x1="342.375" y1="-18" x2="339.37" y2="82.9105" gradientUnits="userSpaceOnUse">
<stop stop-color="#E7E6E6"/>
<stop offset="1" stop-color="#797979"/>
</linearGradient>
</defs>
</svg>
