<svg width="539" height="65" viewBox="0 0 539 65" fill="none" xmlns="http://www.w3.org/2000/svg">
<g opacity="0.3">
<mask id="path-1-outside-1_108_165" maskUnits="userSpaceOnUse" x="-1" y="-1" width="541" height="67" fill="black">
<rect fill="white" x="-1" y="-1" width="541" height="67"/>
<path d="M34.8208 1.8C39.8256 1.8 44.1232 2.6704 47.7136 4.4112C51.3584 6.0976 54.1328 8.4912 56.0368 11.592C57.9952 14.6928 58.9744 18.3104 58.9744 22.4448C58.9744 26.5792 57.9952 30.1968 56.0368 33.2976C54.1328 36.3984 51.3584 38.8192 47.7136 40.56C44.1232 42.2464 39.8256 43.0896 34.8208 43.0896H8.056V30.6048H34.0048C36.9424 30.6048 39.2544 29.8976 40.9408 28.4832C42.6272 27.0144 43.4704 25.0016 43.4704 22.4448C43.4704 19.888 42.6272 17.9024 40.9408 16.488C39.2544 15.0192 36.9424 14.2848 34.0048 14.2848H9.4432L16.3792 7.104V63H0.9568V1.8H34.8208ZM77.3089 28.728H100.238C103.122 28.728 105.407 28.0752 107.093 26.7696C108.779 25.4096 109.622 23.5328 109.622 21.1392C109.622 18.7456 108.779 16.896 107.093 15.5904C105.407 14.2304 103.122 13.5504 100.238 13.5504H75.1057L82.0417 5.9616V63H66.6193V1.8H102.279C106.848 1.8 110.846 2.616 114.274 4.248C117.701 5.88 120.367 8.1376 122.271 11.0208C124.174 13.904 125.126 17.2768 125.126 21.1392C125.126 24.9472 124.174 28.2928 122.271 31.176C120.367 34.0592 117.701 36.3168 114.274 37.9488C110.846 39.5808 106.848 40.3968 102.279 40.3968H77.3089V28.728ZM87.1825 34.3584H104.563L127.085 63H109.214L87.1825 34.3584ZM167.804 64.3056C160.623 64.3056 154.313 62.9728 148.873 60.3072C143.487 57.6416 139.298 53.9152 136.306 49.128C133.314 44.3408 131.818 38.7648 131.818 32.4C131.818 26.0352 133.314 20.4592 136.306 15.672C139.298 10.8848 143.487 7.1584 148.873 4.4928C154.313 1.8272 160.623 0.494399 167.804 0.494399C174.985 0.494399 181.268 1.8272 186.654 4.4928C192.094 7.1584 196.31 10.8848 199.302 15.672C202.348 20.4592 203.871 26.0352 203.871 32.4C203.871 38.7648 202.348 44.3408 199.302 49.128C196.31 53.9152 192.094 57.6416 186.654 60.3072C181.268 62.9728 174.985 64.3056 167.804 64.3056ZM167.804 50.5152C172.047 50.5152 175.692 49.808 178.738 48.3936C181.785 46.9248 184.124 44.8304 185.756 42.1104C187.442 39.3904 188.286 36.1536 188.286 32.4C188.286 28.6464 187.442 25.4096 185.756 22.6896C184.124 19.9696 181.785 17.9024 178.738 16.488C175.692 15.0192 172.047 14.2848 167.804 14.2848C163.615 14.2848 159.998 15.0192 156.951 16.488C153.905 17.9024 151.538 19.9696 149.852 22.6896C148.166 25.4096 147.322 28.6464 147.322 32.4C147.322 36.1536 148.166 39.3904 149.852 42.1104C151.538 44.8304 153.905 46.9248 156.951 48.3936C159.998 49.808 163.615 50.5152 167.804 50.5152ZM208.68 33.0528H223.776V35.256C223.776 40.3152 224.837 44.2048 226.959 46.9248C229.135 49.5904 232.698 50.9232 237.648 50.9232C242.544 50.9232 246.08 49.6448 248.256 47.088C250.487 44.5312 251.602 40.9952 251.602 36.48V1.8H267.024V37.2144C267.024 42.9264 265.8 47.8224 263.352 51.9024C260.904 55.928 257.45 59.0016 252.989 61.1232C248.583 63.2448 243.469 64.3056 237.648 64.3056C231.882 64.3056 226.823 63.2176 222.471 61.0416C218.119 58.8112 214.719 55.6288 212.271 51.4944C209.877 47.36 208.68 42.3552 208.68 36.48V33.0528ZM329.679 26.688V38.112H285.37V26.688H329.679ZM295.815 32.4L291.735 57.696L285.289 50.352H332.29V63H276.313L281.046 32.4L276.313 1.8H331.882V14.448H285.289L291.735 7.104L295.815 32.4ZM408.618 37.704C408.02 42.9808 406.197 47.632 403.151 51.6576C400.105 55.6288 396.079 58.7296 391.074 60.96C386.069 63.1904 380.385 64.3056 374.02 64.3056C366.948 64.3056 360.746 62.9728 355.415 60.3072C350.138 57.6416 346.031 53.9152 343.093 49.128C340.156 44.3408 338.687 38.7648 338.687 32.4C338.687 26.0352 340.156 20.4592 343.093 15.672C346.031 10.8848 350.138 7.1584 355.415 4.4928C360.746 1.8272 366.948 0.494399 374.02 0.494399C380.385 0.494399 386.069 1.6096 391.074 3.84C396.079 6.0704 400.105 9.1712 403.151 13.1424C406.197 17.1136 408.02 21.7648 408.618 27.096H393.114C392.57 24.3216 391.455 21.9552 389.769 19.9968C388.137 18.0384 385.961 16.5424 383.241 15.5088C380.575 14.4208 377.474 13.8768 373.938 13.8768C369.858 13.8768 366.349 14.6384 363.412 16.1616C360.474 17.6304 358.217 19.752 356.639 22.5264C355.061 25.3008 354.273 28.592 354.273 32.4C354.273 36.208 355.061 39.4992 356.639 42.2736C358.217 45.048 360.474 47.1968 363.412 48.72C366.349 50.1888 369.858 50.9232 373.938 50.9232C377.474 50.9232 380.575 50.4064 383.241 49.3728C385.961 48.3392 388.137 46.8432 389.769 44.8848C391.455 42.9264 392.57 40.5328 393.114 37.704H408.618ZM434.113 8.6544H449.536V63H434.113V8.6544ZM410.286 1.8H473.363V15.4272H410.286V1.8ZM476.304 43.008H491.889C492.161 44.8576 493.004 46.4896 494.419 47.904C495.833 49.3184 497.71 50.4064 500.049 51.168C502.443 51.9296 505.217 52.3104 508.372 52.3104C512.888 52.3104 516.424 51.6848 518.98 50.4336C521.592 49.1824 522.897 47.4144 522.897 45.1296C522.897 43.3888 522.136 42.056 520.612 41.1312C519.144 40.152 516.369 39.4448 512.289 39.0096L500.457 37.7856C492.243 36.9696 486.286 35.0656 482.587 32.0736C478.942 29.0816 477.12 25.0016 477.12 19.8336C477.12 15.7536 478.316 12.272 480.71 9.3888C483.158 6.5056 486.558 4.3024 490.91 2.7792C495.316 1.256 500.457 0.494399 506.332 0.494399C512.153 0.494399 517.294 1.3376 521.755 3.024C526.216 4.7104 529.779 7.0496 532.444 10.0416C535.11 13.0336 536.552 16.5424 536.769 20.568H521.184C520.966 18.8816 520.204 17.4672 518.899 16.3248C517.648 15.128 515.934 14.2032 513.758 13.5504C511.636 12.8432 509.08 12.4896 506.088 12.4896C501.953 12.4896 498.662 13.088 496.214 14.2848C493.82 15.4272 492.624 17.0864 492.624 19.2624C492.624 20.8944 493.331 22.1728 494.745 23.0976C496.214 24.0224 498.798 24.7024 502.497 25.1376L514.982 26.5248C520.694 27.1232 525.264 28.0752 528.691 29.3808C532.118 30.6864 534.593 32.4816 536.116 34.7664C537.64 37.0512 538.401 39.9344 538.401 43.416C538.401 47.6048 537.123 51.2768 534.566 54.432C532.064 57.5328 528.528 59.9536 523.958 61.6944C519.443 63.4352 514.166 64.3056 508.128 64.3056C501.872 64.3056 496.377 63.408 491.644 61.6128C486.966 59.8176 483.267 57.3424 480.547 54.1872C477.881 50.9776 476.467 47.2512 476.304 43.008Z"/>
</mask>
<path d="M47.7136 4.4112L47.2773 5.31101L47.2855 5.31496L47.2937 5.31876L47.7136 4.4112ZM56.0368 11.592L55.1846 12.1153L55.1913 12.126L56.0368 11.592ZM56.0368 33.2976L55.1912 32.7636L55.1846 32.7743L56.0368 33.2976ZM47.7136 40.56L48.1387 41.4651L48.1446 41.4624L47.7136 40.56ZM8.056 43.0896H7.056V44.0896H8.056V43.0896ZM8.056 30.6048V29.6048H7.056V30.6048H8.056ZM40.9408 28.4832L41.5834 29.2494L41.5906 29.2434L41.5976 29.2373L40.9408 28.4832ZM40.9408 16.488L40.284 17.2421L40.291 17.2482L40.2982 17.2542L40.9408 16.488ZM9.4432 14.2848L8.72394 13.5901L7.08698 15.2848H9.4432V14.2848ZM16.3792 7.104H17.3792V4.62931L15.6599 6.40926L16.3792 7.104ZM16.3792 63V64H17.3792V63H16.3792ZM0.9568 63H-0.0431995V64H0.9568V63ZM0.9568 1.8V0.799995H-0.0431995V1.8H0.9568ZM34.8208 2.8C39.7119 2.8 43.853 3.65073 47.2773 5.31101L48.1499 3.51138C44.3934 1.69007 39.9393 0.799995 34.8208 0.799995V2.8ZM47.2937 5.31876C50.779 6.93136 53.3943 9.19958 55.1846 12.1153L56.889 11.0687C54.8713 7.78282 51.9378 5.26384 48.1335 3.50363L47.2937 5.31876ZM55.1913 12.126C57.0363 15.0473 57.9744 18.4747 57.9744 22.4448H59.9744C59.9744 18.1461 58.9541 14.3383 56.8823 11.058L55.1913 12.126ZM57.9744 22.4448C57.9744 26.4149 57.0363 29.8423 55.1913 32.7636L56.8823 33.8316C58.9541 30.5513 59.9744 26.7435 59.9744 22.4448H57.9744ZM55.1846 32.7743C53.3925 35.693 50.7732 37.9905 47.2826 39.6576L48.1446 41.4624C51.9436 39.6479 54.8731 37.1038 56.889 33.8209L55.1846 32.7743ZM47.2885 39.6549C43.8612 41.2647 39.7159 42.0896 34.8208 42.0896V44.0896C39.9353 44.0896 44.3853 43.2281 48.1387 41.4651L47.2885 39.6549ZM34.8208 42.0896H8.056V44.0896H34.8208V42.0896ZM9.056 43.0896V30.6048H7.056V43.0896H9.056ZM8.056 31.6048H34.0048V29.6048H8.056V31.6048ZM34.0048 31.6048C37.0982 31.6048 39.6644 30.8589 41.5834 29.2494L40.2982 27.717C38.8444 28.9363 36.7866 29.6048 34.0048 29.6048V31.6048ZM41.5976 29.2373C43.5345 27.5503 44.4704 25.2447 44.4704 22.4448H42.4704C42.4704 24.7585 41.7199 26.4785 40.284 27.7291L41.5976 29.2373ZM44.4704 22.4448C44.4704 19.6455 43.5342 17.3579 41.5834 15.7218L40.2982 17.2542C41.7202 18.4469 42.4704 20.1305 42.4704 22.4448H44.4704ZM41.5976 15.7339C39.6784 14.0624 37.1068 13.2848 34.0048 13.2848V15.2848C36.778 15.2848 38.8304 15.976 40.284 17.2421L41.5976 15.7339ZM34.0048 13.2848H9.4432V15.2848H34.0048V13.2848ZM10.1625 14.9795L17.0985 7.79874L15.6599 6.40926L8.72394 13.5901L10.1625 14.9795ZM15.3792 7.104V63H17.3792V7.104H15.3792ZM16.3792 62H0.9568V64H16.3792V62ZM1.9568 63V1.8H-0.0431995V63H1.9568ZM0.9568 2.8H34.8208V0.799995H0.9568V2.8ZM77.3089 28.728V27.728H76.3089V28.728H77.3089ZM107.093 26.7696L107.705 27.5603L107.713 27.5542L107.721 27.548L107.093 26.7696ZM107.093 15.5904L106.465 16.3688L106.473 16.375L106.481 16.3811L107.093 15.5904ZM75.1057 13.5504L74.3676 12.8758L72.837 14.5504H75.1057V13.5504ZM82.0417 5.9616H83.0417V3.38522L81.3036 5.28695L82.0417 5.9616ZM82.0417 63V64H83.0417V63H82.0417ZM66.6193 63H65.6193V64H66.6193V63ZM66.6193 1.8V0.799995H65.6193V1.8H66.6193ZM114.274 4.248L113.844 5.15086L114.274 4.248ZM122.271 11.0208L123.105 10.4697L122.271 11.0208ZM122.271 31.176L123.105 31.7271L122.271 31.176ZM114.274 37.9488L113.844 37.0459L114.274 37.9488ZM77.3089 40.3968H76.3089V41.3968H77.3089V40.3968ZM87.1825 34.3584V33.3584H85.1516L86.3899 34.9681L87.1825 34.3584ZM104.563 34.3584L105.349 33.7403L105.049 33.3584H104.563V34.3584ZM127.085 63V64H129.143L127.871 62.3819L127.085 63ZM109.215 63L108.422 63.6097L108.722 64H109.215V63ZM77.3089 29.728H100.239V27.728H77.3089V29.728ZM100.239 29.728C103.266 29.728 105.791 29.0424 107.705 27.5603L106.481 25.9789C105.022 27.108 102.977 27.728 100.239 27.728V29.728ZM107.721 27.548C109.669 25.9766 110.622 23.7991 110.622 21.1392H108.622C108.622 23.2665 107.889 24.8426 106.465 25.9912L107.721 27.548ZM110.622 21.1392C110.622 18.4794 109.668 16.3196 107.705 14.7997L106.481 16.3811C107.89 17.4724 108.622 19.0118 108.622 21.1392H110.622ZM107.721 14.812C105.805 13.2673 103.274 12.5504 100.239 12.5504V14.5504C102.969 14.5504 105.008 15.1935 106.465 16.3688L107.721 14.812ZM100.239 12.5504H75.1057V14.5504H100.239V12.5504ZM75.8438 14.225L82.7798 6.63624L81.3036 5.28695L74.3676 12.8758L75.8438 14.225ZM81.0417 5.9616V63H83.0417V5.9616H81.0417ZM82.0417 62H66.6193V64H82.0417V62ZM67.6193 63V1.8H65.6193V63H67.6193ZM66.6193 2.8H102.279V0.799995H66.6193V2.8ZM102.279 2.8C106.729 2.8 110.575 3.59452 113.844 5.15086L114.704 3.34514C111.118 1.63747 106.967 0.799995 102.279 0.799995V2.8ZM113.844 5.15086C117.123 6.71256 119.642 8.8553 121.436 11.5719L123.105 10.4697C121.091 7.41989 118.278 5.04744 114.704 3.34514L113.844 5.15086ZM121.436 11.5719C123.22 14.2727 124.126 17.4488 124.126 21.1392H126.126C126.126 17.1048 125.129 13.5353 123.105 10.4697L121.436 11.5719ZM124.126 21.1392C124.126 24.7721 123.221 27.9218 121.436 30.6249L123.105 31.7271C125.128 28.6638 126.126 25.1223 126.126 21.1392H124.126ZM121.436 30.6249C119.642 33.3415 117.123 35.4842 113.844 37.0459L114.704 38.8517C118.278 37.1494 121.091 34.7769 123.105 31.7271L121.436 30.6249ZM113.844 37.0459C110.575 38.6023 106.729 39.3968 102.279 39.3968V41.3968C106.967 41.3968 111.118 40.5593 114.704 38.8517L113.844 37.0459ZM102.279 39.3968H77.3089V41.3968H102.279V39.3968ZM78.3089 40.3968V28.728H76.3089V40.3968H78.3089ZM87.1825 35.3584H104.563V33.3584H87.1825V35.3584ZM103.777 34.9765L126.299 63.6181L127.871 62.3819L105.349 33.7403L103.777 34.9765ZM127.085 62H109.215V64H127.085V62ZM110.007 62.3903L87.9751 33.7487L86.3899 34.9681L108.422 63.6097L110.007 62.3903ZM148.873 60.3072L148.429 61.2034L148.433 61.2052L148.873 60.3072ZM136.306 49.128L135.458 49.658L136.306 49.128ZM136.306 15.672L135.458 15.142L136.306 15.672ZM148.873 4.4928L148.433 3.5948L148.429 3.59657L148.873 4.4928ZM186.654 4.4928L186.21 5.38904L186.214 5.39079L186.654 4.4928ZM199.302 15.672L198.454 16.202L198.458 16.2089L199.302 15.672ZM199.302 49.128L198.458 48.5911L198.454 48.598L199.302 49.128ZM186.654 60.3072L186.214 59.4092L186.21 59.411L186.654 60.3072ZM178.738 48.3936L179.159 49.3006L179.166 49.2975L179.173 49.2944L178.738 48.3936ZM185.756 42.1104L184.906 41.5835L184.902 41.5897L184.898 41.5959L185.756 42.1104ZM185.756 22.6896L184.898 23.2041L184.902 23.2103L184.906 23.2165L185.756 22.6896ZM178.738 16.488L178.304 17.3888L178.311 17.3919L178.317 17.395L178.738 16.488ZM156.951 16.488L157.372 17.395L157.379 17.3919L157.385 17.3888L156.951 16.488ZM149.852 22.6896L150.702 23.2165L149.852 22.6896ZM149.852 42.1104L150.702 41.5835L149.852 42.1104ZM156.951 48.3936L156.517 49.2944L156.523 49.2975L156.53 49.3006L156.951 48.3936ZM167.804 63.3056C160.748 63.3056 154.593 61.9964 149.313 59.4092L148.433 61.2052C154.033 63.9492 160.499 65.3056 167.804 65.3056V63.3056ZM149.316 59.411C144.086 56.8221 140.042 53.2178 137.154 48.598L135.458 49.658C138.555 54.6126 142.889 58.4611 148.429 61.2034L149.316 59.411ZM137.154 48.598C134.274 43.9893 132.818 38.6019 132.818 32.4H130.818C130.818 38.9277 132.355 44.6923 135.458 49.658L137.154 48.598ZM132.818 32.4C132.818 26.1981 134.274 20.8107 137.154 16.202L135.458 15.142C132.355 20.1077 130.818 25.8723 130.818 32.4H132.818ZM137.154 16.202C140.042 11.5822 144.086 7.97792 149.316 5.38903L148.429 3.59657C142.889 6.33887 138.555 10.1874 135.458 15.142L137.154 16.202ZM149.313 5.39079C154.593 2.80364 160.748 1.4944 167.804 1.4944V-0.505602C160.499 -0.505602 154.033 0.850756 148.433 3.59481L149.313 5.39079ZM167.804 1.4944C174.861 1.4944 180.987 2.80375 186.21 5.38903L187.097 3.59657C181.549 0.850651 175.109 -0.505602 167.804 -0.505602V1.4944ZM186.214 5.39079C191.499 7.98048 195.568 11.5848 198.454 16.202L200.15 15.142C197.051 10.1848 192.688 6.33632 187.094 3.59481L186.214 5.39079ZM198.458 16.2089C201.39 20.8166 202.871 26.2015 202.871 32.4H204.871C204.871 25.8689 203.306 20.1018 200.145 15.1351L198.458 16.2089ZM202.871 32.4C202.871 38.5985 201.39 43.9834 198.458 48.5911L200.145 49.6649C203.306 44.6982 204.871 38.9311 204.871 32.4H202.871ZM198.454 48.598C195.568 53.2152 191.499 56.8195 186.214 59.4092L187.094 61.2052C192.688 58.4637 197.051 54.6152 200.15 49.658L198.454 48.598ZM186.21 59.411C180.987 61.9963 174.861 63.3056 167.804 63.3056V65.3056C175.109 65.3056 181.549 63.9493 187.097 61.2034L186.21 59.411ZM167.804 51.5152C172.155 51.5152 175.951 50.7902 179.159 49.3006L178.317 47.4866C175.433 48.8258 171.939 49.5152 167.804 49.5152V51.5152ZM179.173 49.2944C182.383 47.7467 184.874 45.5234 186.613 42.6249L184.898 41.5959C183.374 44.1374 181.187 46.1029 178.304 47.4928L179.173 49.2944ZM186.606 42.6373C188.406 39.7335 189.286 36.3071 189.286 32.4H187.286C187.286 36.0001 186.478 39.0473 184.906 41.5835L186.606 42.6373ZM189.286 32.4C189.286 28.4929 188.406 25.0665 186.606 22.1627L184.906 23.2165C186.478 25.7527 187.286 28.7999 187.286 32.4H189.286ZM186.613 22.1751C184.872 19.2732 182.376 17.0744 179.159 15.581L178.317 17.395C181.193 18.7304 183.376 20.666 184.898 23.2041L186.613 22.1751ZM179.173 15.5872C175.961 14.0387 172.16 13.2848 167.804 13.2848V15.2848C171.934 15.2848 175.423 15.9997 178.304 17.3888L179.173 15.5872ZM167.804 13.2848C163.5 13.2848 159.727 14.0394 156.517 15.5872L157.385 17.3888C160.268 15.999 163.73 15.2848 167.804 15.2848V13.2848ZM156.53 15.581C153.316 17.0733 150.796 19.2684 149.002 22.1627L150.702 23.2165C152.28 20.6708 154.494 18.7315 157.372 17.395L156.53 15.581ZM149.002 22.1627C147.202 25.0665 146.322 28.4929 146.322 32.4H148.322C148.322 28.7999 149.129 25.7527 150.702 23.2165L149.002 22.1627ZM146.322 32.4C146.322 36.3071 147.202 39.7335 149.002 42.6373L150.702 41.5835C149.129 39.0473 148.322 36.0001 148.322 32.4H146.322ZM149.002 42.6373C150.794 45.5283 153.309 47.7479 156.517 49.2944L157.385 47.4928C154.5 46.1017 152.282 44.1325 150.702 41.5835L149.002 42.6373ZM156.53 49.3006C159.737 50.7895 163.505 51.5152 167.804 51.5152V49.5152C163.726 49.5152 160.258 48.8265 157.372 47.4866L156.53 49.3006ZM208.68 33.0528V32.0528H207.68V33.0528H208.68ZM223.776 33.0528H224.776V32.0528H223.776V33.0528ZM226.959 46.9248L226.17 47.5398L226.177 47.5486L226.184 47.5572L226.959 46.9248ZM248.256 47.088L247.503 46.4306L247.495 46.4399L248.256 47.088ZM251.602 1.8V0.799995H250.602V1.8H251.602ZM267.024 1.8H268.024V0.799995H267.024V1.8ZM263.352 51.9024L264.207 52.422L264.21 52.4169L263.352 51.9024ZM252.989 61.1232L252.56 60.2201L252.555 60.2222L252.989 61.1232ZM222.471 61.0416L222.015 61.9316L222.024 61.936L222.471 61.0416ZM212.271 51.4944L211.405 51.9955L211.41 52.0039L212.271 51.4944ZM208.68 34.0528H223.776V32.0528H208.68V34.0528ZM222.776 33.0528V35.256H224.776V33.0528H222.776ZM222.776 35.256C222.776 40.4379 223.861 44.5788 226.17 47.5398L227.747 46.3098C225.814 43.8308 224.776 40.1925 224.776 35.256H222.776ZM226.184 47.5572C228.622 50.5439 232.535 51.9232 237.648 51.9232V49.9232C232.862 49.9232 229.647 48.6369 227.733 46.2924L226.184 47.5572ZM237.648 51.9232C242.7 51.9232 246.578 50.6032 249.018 47.7361L247.495 46.4399C245.583 48.6864 242.389 49.9232 237.648 49.9232V51.9232ZM249.01 47.7454C251.445 44.9535 252.602 41.1559 252.602 36.48H250.602C250.602 40.8345 249.528 44.1089 247.503 46.4306L249.01 47.7454ZM252.602 36.48V1.8H250.602V36.48H252.602ZM251.602 2.8H267.024V0.799995H251.602V2.8ZM266.024 1.8V37.2144H268.024V1.8H266.024ZM266.024 37.2144C266.024 42.7817 264.833 47.4919 262.495 51.3879L264.21 52.4169C266.768 48.1529 268.024 43.0711 268.024 37.2144H266.024ZM262.498 51.3828C260.156 55.2336 256.854 58.178 252.56 60.2201L253.419 62.0263C258.047 59.8252 261.653 56.6224 264.207 52.422L262.498 51.3828ZM252.555 60.2222C248.308 62.2674 243.347 63.3056 237.648 63.3056V65.3056C243.591 65.3056 248.858 64.2222 253.423 62.0242L252.555 60.2222ZM237.648 63.3056C232.009 63.3056 227.108 62.242 222.918 60.1472L222.024 61.936C226.538 64.1932 231.755 65.3056 237.648 65.3056V63.3056ZM222.927 60.1517C218.74 58.0057 215.481 54.9538 213.131 50.9849L211.41 52.0039C213.956 56.3038 217.498 59.6167 222.015 61.9315L222.927 60.1517ZM213.136 50.9934C210.849 47.0426 209.68 42.2194 209.68 36.48H207.68C207.68 42.491 208.906 47.6774 211.405 51.9954L213.136 50.9934ZM209.68 36.48V33.0528H207.68V36.48H209.68ZM329.679 26.688H330.679V25.688H329.679V26.688ZM329.679 38.112V39.112H330.679V38.112H329.679ZM285.37 38.112H284.37V39.112H285.37V38.112ZM285.37 26.688V25.688H284.37V26.688H285.37ZM295.815 32.4L296.802 32.5592L296.828 32.4L296.802 32.2408L295.815 32.4ZM291.735 57.696L290.984 58.3557L292.384 59.9514L292.722 57.8552L291.735 57.696ZM285.289 50.352V49.352H283.08L284.537 51.0117L285.289 50.352ZM332.29 50.352H333.29V49.352H332.29V50.352ZM332.29 63V64H333.29V63H332.29ZM276.313 63L275.325 62.8472L275.146 64H276.313V63ZM281.046 32.4L282.034 32.5528L282.057 32.4L282.034 32.2472L281.046 32.4ZM276.313 1.8V0.799995H275.146L275.325 1.95284L276.313 1.8ZM331.882 1.8H332.882V0.799995H331.882V1.8ZM331.882 14.448V15.448H332.882V14.448H331.882ZM285.289 14.448L284.537 13.7883L283.08 15.448H285.289V14.448ZM291.735 7.104L292.722 6.94476L292.384 4.84859L290.984 6.44431L291.735 7.104ZM328.679 26.688V38.112H330.679V26.688H328.679ZM329.679 37.112H285.37V39.112H329.679V37.112ZM286.37 38.112V26.688H284.37V38.112H286.37ZM285.37 27.688H329.679V25.688H285.37V27.688ZM294.828 32.2408L290.748 57.5368L292.722 57.8552L296.802 32.5592L294.828 32.2408ZM292.487 57.0363L286.04 49.6923L284.537 51.0117L290.984 58.3557L292.487 57.0363ZM285.289 51.352H332.29V49.352H285.289V51.352ZM331.29 50.352V63H333.29V50.352H331.29ZM332.29 62H276.313V64H332.29V62ZM277.301 63.1528L282.034 32.5528L280.057 32.2472L275.325 62.8472L277.301 63.1528ZM282.034 32.2472L277.301 1.64715L275.325 1.95284L280.057 32.5528L282.034 32.2472ZM276.313 2.8H331.882V0.799995H276.313V2.8ZM330.882 1.8V14.448H332.882V1.8H330.882ZM331.882 13.448H285.289V15.448H331.882V13.448ZM286.04 15.1077L292.487 7.76368L290.984 6.44431L284.537 13.7883L286.04 15.1077ZM290.748 7.26323L294.828 32.5592L296.802 32.2408L292.722 6.94476L290.748 7.26323ZM408.618 37.704L409.612 37.8167L409.738 36.704H408.618V37.704ZM403.151 51.6576L403.945 52.2663L403.948 52.261L403.151 51.6576ZM391.074 60.96L390.667 60.0466L391.074 60.96ZM355.415 60.3072L354.964 61.1998L354.968 61.2016L355.415 60.3072ZM343.093 49.128L342.241 49.651L343.093 49.128ZM343.093 15.672L342.241 15.149L343.093 15.672ZM355.415 4.4928L354.968 3.59837L354.964 3.60022L355.415 4.4928ZM403.151 13.1424L402.358 13.7511L403.151 13.1424ZM408.618 27.096V28.096H409.737L409.612 26.9845L408.618 27.096ZM393.114 27.096L392.133 27.2884L392.291 28.096H393.114V27.096ZM389.769 19.9968L389 20.637L389.006 20.6432L389.011 20.6493L389.769 19.9968ZM383.241 15.5088L382.863 16.4346L382.874 16.4393L382.885 16.4436L383.241 15.5088ZM363.412 16.1616L363.859 17.056L363.866 17.0527L363.872 17.0494L363.412 16.1616ZM356.639 22.5264L357.508 23.0207L356.639 22.5264ZM356.639 42.2736L355.77 42.7679L356.639 42.2736ZM363.412 48.72L362.952 49.6078L362.958 49.6111L362.965 49.6144L363.412 48.72ZM383.241 49.3728L382.885 48.438L382.879 48.4404L383.241 49.3728ZM389.769 44.8848L389.011 44.2323L389.006 44.2384L389 44.2446L389.769 44.8848ZM393.114 37.704V36.704H392.288L392.132 37.5152L393.114 37.704ZM407.625 37.5913C407.045 42.6995 405.286 47.1791 402.354 51.0542L403.948 52.261C407.109 48.0849 408.994 43.2621 409.612 37.8167L407.625 37.5913ZM402.358 51.0489C399.422 54.8757 395.535 57.8774 390.667 60.0466L391.481 61.8734C396.624 59.5818 400.787 56.3819 403.945 52.2663L402.358 51.0489ZM390.667 60.0466C385.81 62.2114 380.267 63.3056 374.02 63.3056V65.3056C380.502 65.3056 386.329 64.1694 391.481 61.8734L390.667 60.0466ZM374.02 63.3056C367.074 63.3056 361.031 61.9971 355.862 59.4128L354.968 61.2016C360.462 63.9485 366.821 65.3056 374.02 65.3056V63.3056ZM355.866 59.4146C350.746 56.828 346.781 53.2257 343.946 48.605L342.241 49.651C345.281 54.6047 349.531 58.4552 354.964 61.1998L355.866 59.4146ZM343.946 48.605C341.117 43.9953 339.687 38.6054 339.687 32.4H337.687C337.687 38.9242 339.195 44.6863 342.241 49.651L343.946 48.605ZM339.687 32.4C339.687 26.1946 341.117 20.8047 343.946 16.195L342.241 15.149C339.195 20.1137 337.687 25.8758 337.687 32.4H339.687ZM343.946 16.195C346.781 11.5743 350.746 7.97198 355.866 5.38538L354.964 3.60022C349.531 6.34482 345.281 10.1953 342.241 15.149L343.946 16.195ZM355.862 5.38723C361.031 2.80286 367.074 1.4944 374.02 1.4944V-0.505602C366.821 -0.505602 360.462 0.851538 354.968 3.59837L355.862 5.38723ZM374.02 1.4944C380.267 1.4944 385.81 2.58859 390.667 4.7534L391.481 2.9266C386.329 0.63061 380.502 -0.505602 374.02 -0.505602V1.4944ZM390.667 4.7534C395.535 6.92256 399.422 9.92428 402.358 13.7511L403.945 12.5337C400.787 8.41812 396.624 5.21824 391.481 2.9266L390.667 4.7534ZM402.358 13.7511C405.285 17.5675 407.045 22.0437 407.625 27.2075L409.612 26.9845C408.995 21.4859 407.11 16.6597 403.944 12.5337L402.358 13.7511ZM408.618 26.096H393.114V28.096H408.618V26.096ZM394.096 26.9036C393.521 23.9755 392.336 21.4462 390.526 19.3443L389.011 20.6493C390.574 22.4642 391.619 24.6677 392.133 27.2884L394.096 26.9036ZM390.537 19.3566C388.78 17.2484 386.454 15.6599 383.596 14.574L382.885 16.4436C385.468 17.4249 387.493 18.8284 389 20.637L390.537 19.3566ZM383.619 14.583C380.809 13.4362 377.575 12.8768 373.938 12.8768V14.8768C377.373 14.8768 380.341 15.4054 382.863 16.4346L383.619 14.583ZM373.938 12.8768C369.735 12.8768 366.061 13.6617 362.952 15.2738L363.872 17.0494C366.638 15.6151 369.982 14.8768 373.938 14.8768V12.8768ZM362.965 15.2672C359.855 16.8218 357.448 19.0802 355.77 22.0321L357.508 23.0207C358.985 20.4238 361.093 18.4389 363.859 17.056L362.965 15.2672ZM355.77 22.0321C354.091 24.9838 353.273 28.4522 353.273 32.4H355.273C355.273 28.7318 356.032 25.6178 357.508 23.0207L355.77 22.0321ZM353.273 32.4C353.273 36.3478 354.091 39.8162 355.77 42.7679L357.508 41.7793C356.032 39.1822 355.273 36.0682 355.273 32.4H353.273ZM355.77 42.7679C357.447 45.7166 359.849 47.9991 362.952 49.6078L363.872 47.8322C361.099 46.3945 358.987 44.3794 357.508 41.7793L355.77 42.7679ZM362.965 49.6144C366.071 51.1674 369.74 51.9232 373.938 51.9232V49.9232C369.977 49.9232 366.628 49.2102 363.859 47.8256L362.965 49.6144ZM373.938 51.9232C377.57 51.9232 380.798 51.3927 383.602 50.3052L382.879 48.4404C380.353 49.4201 377.379 49.9232 373.938 49.9232V51.9232ZM383.596 50.3076C386.454 49.2217 388.78 47.6332 390.537 45.525L389 44.2446C387.493 46.0532 385.468 47.4567 382.885 48.438L383.596 50.3076ZM390.526 45.5373C392.339 43.4319 393.523 40.873 394.096 37.8928L392.132 37.5152C391.617 40.1926 390.571 42.4209 389.011 44.2323L390.526 45.5373ZM393.114 38.704H408.618V36.704H393.114V38.704ZM434.113 8.6544V7.6544H433.113V8.6544H434.113ZM449.536 8.6544H450.536V7.6544H449.536V8.6544ZM449.536 63V64H450.536V63H449.536ZM434.113 63H433.113V64H434.113V63ZM410.286 1.8V0.799995H409.286V1.8H410.286ZM473.363 1.8H474.363V0.799995H473.363V1.8ZM473.363 15.4272V16.4272H474.363V15.4272H473.363ZM410.286 15.4272H409.286V16.4272H410.286V15.4272ZM434.113 9.6544H449.536V7.6544H434.113V9.6544ZM448.536 8.6544V63H450.536V8.6544H448.536ZM449.536 62H434.113V64H449.536V62ZM435.113 63V8.6544H433.113V63H435.113ZM410.286 2.8H473.363V0.799995H410.286V2.8ZM472.363 1.8V15.4272H474.363V1.8H472.363ZM473.363 14.4272H410.286V16.4272H473.363V14.4272ZM411.286 15.4272V1.8H409.286V15.4272H411.286ZM476.304 43.008V42.008H475.264L475.304 43.0464L476.304 43.008ZM491.889 43.008L492.879 42.8625L492.753 42.008H491.889V43.008ZM494.419 47.904L493.712 48.6111L494.419 47.904ZM500.049 51.168L499.74 52.1189L499.746 52.1209L500.049 51.168ZM518.98 50.4336L518.548 49.5318L518.541 49.5354L518.98 50.4336ZM520.612 41.1312L520.058 41.9632L520.075 41.975L520.093 41.986L520.612 41.1312ZM512.289 39.0096L512.395 38.0152L512.392 38.0149L512.289 39.0096ZM500.457 37.7856L500.56 36.7909L500.556 36.7905L500.457 37.7856ZM482.587 32.0736L481.952 32.8465L481.958 32.8511L482.587 32.0736ZM480.71 9.3888L479.948 8.74153L479.941 8.75005L480.71 9.3888ZM490.91 2.7792L490.583 1.83407L490.58 1.83534L490.91 2.7792ZM521.755 3.024L521.401 3.95939L521.755 3.024ZM532.444 10.0416L531.698 10.7068L532.444 10.0416ZM536.769 20.568V21.568H537.825L537.768 20.514L536.769 20.568ZM521.184 20.568L520.192 20.696L520.304 21.568H521.184V20.568ZM518.899 16.3248L518.208 17.0474L518.224 17.0628L518.24 17.0774L518.899 16.3248ZM513.758 13.5504L513.442 14.4991L513.456 14.5039L513.471 14.5082L513.758 13.5504ZM496.214 14.2848L496.645 15.1873L496.653 15.1832L496.214 14.2848ZM494.745 23.0976L494.198 23.9346L494.205 23.9393L494.212 23.9438L494.745 23.0976ZM502.497 25.1376L502.38 26.1308L502.387 26.1315L502.497 25.1376ZM514.982 26.5248L514.872 27.5187L514.878 27.5194L514.982 26.5248ZM528.691 29.3808L529.047 28.4463L528.691 29.3808ZM534.566 54.432L533.789 53.8024L533.788 53.804L534.566 54.432ZM523.958 61.6944L523.602 60.7599L523.598 60.7613L523.958 61.6944ZM491.644 61.6128L491.286 62.5464L491.29 62.5478L491.644 61.6128ZM480.547 54.1872L479.777 54.8261L479.783 54.8332L479.789 54.8401L480.547 54.1872ZM476.304 44.008H491.889V42.008H476.304V44.008ZM490.9 43.1535C491.205 45.231 492.157 47.056 493.712 48.6111L495.126 47.1969C493.852 45.9232 493.117 44.4841 492.879 42.8625L490.9 43.1535ZM493.712 48.6111C495.26 50.1597 497.284 51.3195 499.74 52.1189L500.359 50.2171C498.136 49.4933 496.406 48.4771 495.126 47.1969L493.712 48.6111ZM499.746 52.1209C502.259 52.9205 505.139 53.3104 508.372 53.3104V51.3104C505.295 51.3104 502.627 50.9387 500.352 50.2151L499.746 52.1209ZM508.372 53.3104C512.96 53.3104 516.669 52.6779 519.42 51.3318L518.541 49.5354C516.178 50.6917 512.815 51.3104 508.372 51.3104V53.3104ZM519.412 51.3354C522.259 49.9713 523.897 47.909 523.897 45.1296H521.897C521.897 46.9198 520.924 48.3935 518.548 49.5318L519.412 51.3354ZM523.897 45.1296C523.897 43.0294 522.945 41.3773 521.131 40.2764L520.093 41.986C521.327 42.7347 521.897 43.7482 521.897 45.1296H523.897ZM521.167 40.2991C519.475 39.171 516.476 38.4506 512.395 38.0152L512.183 40.004C516.262 40.439 518.812 41.133 520.058 41.9632L521.167 40.2991ZM512.392 38.0149L500.56 36.7909L500.354 38.7803L512.186 40.0043L512.392 38.0149ZM500.556 36.7905C492.41 35.9813 486.688 34.1047 483.216 31.2961L481.958 32.8511C485.884 36.0265 492.076 37.9579 500.358 38.7807L500.556 36.7905ZM483.221 31.3007C479.832 28.5184 478.12 24.7349 478.12 19.8336H476.12C476.12 25.2683 478.052 29.6448 481.952 32.8465L483.221 31.3007ZM478.12 19.8336C478.12 15.9647 479.248 12.7149 481.479 10.0276L479.941 8.75005C477.384 11.8291 476.12 15.5425 476.12 19.8336H478.12ZM481.472 10.036C483.782 7.31516 487.019 5.20036 491.24 3.72306L490.58 1.83534C486.096 3.40443 482.534 5.69603 479.948 8.74157L481.472 10.036ZM491.237 3.72432C495.515 2.2455 500.541 1.4944 506.332 1.4944V-0.505602C500.374 -0.505602 495.118 0.266497 490.583 1.83407L491.237 3.72432ZM506.332 1.4944C512.058 1.4944 517.075 2.32397 521.401 3.95939L522.108 2.08861C517.513 0.351225 512.248 -0.505602 506.332 -0.505602V1.4944ZM521.401 3.95939C525.74 5.59954 529.158 7.85614 531.698 10.7068L533.191 9.37639C530.399 6.24305 526.692 3.82126 522.108 2.08861L521.401 3.95939ZM531.698 10.7068C534.211 13.5284 535.565 16.8213 535.771 20.622L537.768 20.514C537.538 16.2635 536.008 12.5388 533.191 9.37639L531.698 10.7068ZM536.769 19.568H521.184V21.568H536.769V19.568ZM522.175 20.44C521.926 18.5064 521.042 16.8716 519.557 15.5722L518.24 17.0774C519.366 18.0628 520.006 19.2568 520.192 20.696L522.175 20.44ZM519.59 15.6022C518.195 14.2675 516.327 13.2771 514.045 12.5926L513.471 14.5082C515.541 15.1293 517.1 15.9885 518.208 17.0474L519.59 15.6022ZM514.074 12.6017C511.823 11.8512 509.153 11.4896 506.088 11.4896V13.4896C509.006 13.4896 511.45 13.8352 513.442 14.4991L514.074 12.6017ZM506.088 11.4896C501.873 11.4896 498.412 12.0971 495.775 13.3864L496.653 15.1832C498.912 14.0789 502.034 13.4896 506.088 13.4896V11.4896ZM495.783 13.3823C494.479 14.005 493.432 14.8009 492.71 15.801C491.981 16.8121 491.624 17.9786 491.624 19.2624H493.624C493.624 18.3702 493.865 17.6191 494.332 16.971C494.808 16.3119 495.556 15.707 496.645 15.1873L495.783 13.3823ZM491.624 19.2624C491.624 21.2461 492.513 22.833 494.198 23.9346L495.292 22.2606C494.148 21.5126 493.624 20.5427 493.624 19.2624H491.624ZM494.212 23.9438C495.885 24.9969 498.665 25.6936 502.38 26.1307L502.614 24.1444C498.931 23.7111 496.543 23.0479 495.278 22.2514L494.212 23.9438ZM502.387 26.1315L514.872 27.5187L515.092 25.5309L502.608 24.1437L502.387 26.1315ZM514.878 27.5194C520.546 28.1132 525.021 29.0528 528.335 30.3153L529.047 28.4463C525.506 27.0976 520.842 26.1332 515.086 25.5302L514.878 27.5194ZM528.335 30.3153C531.632 31.5714 533.91 33.2589 535.284 35.3211L536.948 34.2117C535.277 31.7043 532.604 29.8014 529.047 28.4463L528.335 30.3153ZM535.284 35.3211C536.672 37.4026 537.401 40.0791 537.401 43.416H539.401C539.401 39.7897 538.607 36.6997 536.948 34.2117L535.284 35.3211ZM537.401 43.416C537.401 47.3834 536.197 50.8313 533.789 53.8024L535.343 55.0616C538.049 51.7223 539.401 47.8262 539.401 43.416H537.401ZM533.788 53.804C531.419 56.739 528.044 59.0679 523.602 60.7599L524.314 62.6289C529.012 60.8393 532.708 58.3266 535.344 55.06L533.788 53.804ZM523.598 60.7613C519.222 62.4484 514.072 63.3056 508.128 63.3056V65.3056C514.26 65.3056 519.663 64.422 524.318 62.6275L523.598 60.7613ZM508.128 63.3056C501.965 63.3056 496.595 62.4212 491.999 60.6778L491.29 62.5478C496.159 64.3948 501.778 65.3056 508.128 65.3056V63.3056ZM492.003 60.6792C487.447 58.9312 483.897 56.5414 481.304 53.5343L479.789 54.8401C482.637 58.1434 486.485 60.704 491.286 62.5464L492.003 60.6792ZM481.316 53.5483C478.794 50.5113 477.458 46.997 477.303 42.9696L475.304 43.0464C475.476 47.5054 476.969 51.4439 479.777 54.8261L481.316 53.5483Z" fill="url(#paint0_linear_108_165)" mask="url(#path-1-outside-1_108_165)"/>
</g>
<defs>
<linearGradient id="paint0_linear_108_165" x1="268" y1="-18" x2="264.244" y2="82.8601" gradientUnits="userSpaceOnUse">
<stop stop-color="#E7E6E6"/>
<stop offset="1" stop-color="#797979"/>
</linearGradient>
</defs>
</svg>
