<svg width="14" height="15" viewBox="0 0 14 15" fill="none" xmlns="http://www.w3.org/2000/svg">
<g clip-path="url(#clip0_51_226)">
<path d="M6.99473 0.236725C3.12338 0.23516 -0.012207 3.36918 -0.012207 7.2374C-0.012207 10.2963 1.9493 12.8965 4.681 13.8514C5.04888 13.9438 4.99252 13.6823 4.99252 13.5039V12.2907C2.86821 12.5396 2.78211 11.1338 2.63966 10.899C2.35162 10.4074 1.67065 10.2822 1.87416 10.0474C2.35788 9.79847 2.85099 10.11 3.42238 10.9538C3.83566 11.5659 4.64186 11.4625 5.05044 11.3608C5.13968 10.9929 5.33066 10.6642 5.59365 10.409C3.39264 10.0145 2.47529 8.67135 2.47529 7.07459C2.47529 6.2997 2.73045 5.58742 3.2314 5.0129C2.91205 4.06581 3.26114 3.2549 3.3081 3.13437C4.21763 3.05296 5.16316 3.78559 5.23673 3.84351C5.75333 3.70419 6.3435 3.63061 7.00412 3.63061C7.66787 3.63061 8.25961 3.70732 8.7809 3.84821C8.9578 3.71358 9.83445 3.08427 10.6798 3.16098C10.7252 3.28152 11.0665 4.07363 10.7659 5.0082C11.2731 5.58429 11.5314 6.30283 11.5314 7.07929C11.5314 8.67917 10.6078 10.0239 8.4005 10.4121C8.58956 10.598 8.73967 10.8198 8.84208 11.0644C8.94449 11.309 8.99713 11.5715 8.99693 11.8367V13.5978C9.00946 13.7387 8.99693 13.878 9.23175 13.878C12.0042 12.9434 14.0001 10.3245 14.0001 7.23896C14.0001 3.36918 10.8629 0.236725 6.99473 0.236725Z" fill="white"/>
</g>
<defs>
<clipPath id="clip0_51_226">
<rect width="14" height="14" fill="white" transform="translate(0 0.057373)"/>
</clipPath>
</defs>
</svg>
