<svg width="24" height="25" viewBox="0 0 24 25" fill="none" xmlns="http://www.w3.org/2000/svg">
<path d="M17 2.01025H7C4.23858 2.01025 2 4.24883 2 7.01025V17.0103C2 19.7717 4.23858 22.0103 7 22.0103H17C19.7614 22.0103 22 19.7717 22 17.0103V7.01025C22 4.24883 19.7614 2.01025 17 2.01025Z" stroke="#CD1F3E" stroke-width="2" stroke-linecap="round" stroke-linejoin="round"/>
<path d="M16 11.3801C16.1234 12.2123 15.9812 13.0623 15.5937 13.8091C15.2062 14.5559 14.5931 15.1615 13.8416 15.5397C13.0901 15.918 12.2384 16.0497 11.4077 15.916C10.5771 15.7823 9.80971 15.3901 9.21479 14.7952C8.61987 14.2003 8.22768 13.4329 8.09402 12.6023C7.96035 11.7716 8.09202 10.92 8.47028 10.1684C8.84854 9.41692 9.45414 8.80381 10.2009 8.41631C10.9477 8.02881 11.7977 7.88666 12.63 8.01007C13.4789 8.13595 14.2648 8.53153 14.8716 9.13837C15.4785 9.74522 15.8741 10.5311 16 11.3801Z" stroke="#CD1F3E" stroke-width="2" stroke-linecap="round" stroke-linejoin="round"/>
<path d="M17.5 6.51025H17.51" stroke="#CD1F3E" stroke-width="2" stroke-linecap="round" stroke-linejoin="round"/>
</svg>
