<svg width="44" height="44" viewBox="0 0 44 44" fill="none" xmlns="http://www.w3.org/2000/svg">
<rect x="0.5" y="0.5" width="43" height="43" rx="9.5" stroke="white" stroke-opacity="0.08"/>
<path d="M21.9999 24.1699C19.8699 24.1699 18.1299 22.4399 18.1299 20.2999C18.1299 18.1599 19.8699 16.4399 21.9999 16.4399C24.1299 16.4399 25.8699 18.1699 25.8699 20.3099C25.8699 22.4499 24.1299 24.1699 21.9999 24.1699ZM21.9999 17.9399C20.6999 17.9399 19.6299 18.9999 19.6299 20.3099C19.6299 21.6199 20.6899 22.6799 21.9999 22.6799C23.3099 22.6799 24.3699 21.6199 24.3699 20.3099C24.3699 18.9999 23.2999 17.9399 21.9999 17.9399Z" fill="url(#paint0_linear_51_193)"/>
<path d="M21.9999 32.76C20.5199 32.76 19.0299 32.2 17.8699 31.09C14.9199 28.25 11.6599 23.72 12.8899 18.33C13.9999 13.44 18.2699 11.25 21.9999 11.25C21.9999 11.25 21.9999 11.25 22.0099 11.25C25.7399 11.25 30.0099 13.44 31.1199 18.34C32.3399 23.73 29.0799 28.25 26.1299 31.09C24.9699 32.2 23.4799 32.76 21.9999 32.76ZM21.9999 12.75C19.0899 12.75 15.3499 14.3 14.3599 18.66C13.2799 23.37 16.2399 27.43 18.9199 30C20.6499 31.67 23.3599 31.67 25.0899 30C27.7599 27.43 30.7199 23.37 29.6599 18.66C28.6599 14.3 24.9099 12.75 21.9999 12.75Z" fill="url(#paint1_linear_51_193)"/>
<defs>
<linearGradient id="paint0_linear_51_193" x1="18.1256" y1="16.4399" x2="26.1712" y2="16.7723" gradientUnits="userSpaceOnUse">
<stop stop-color="#D6D6D6"/>
<stop offset="1" stop-color="#B1B1B1"/>
</linearGradient>
<linearGradient id="paint1_linear_51_193" x1="12.6129" y1="11.25" x2="32.121" y2="11.9519" gradientUnits="userSpaceOnUse">
<stop stop-color="#D6D6D6"/>
<stop offset="1" stop-color="#B1B1B1"/>
</linearGradient>
</defs>
</svg>
