<svg width="44" height="44" viewBox="0 0 44 44" fill="none" xmlns="http://www.w3.org/2000/svg">
<rect x="0.5" y="0.5" width="43" height="43" rx="9.5" stroke="white" stroke-opacity="0.08"/>
<path d="M27 31.25H17C13.35 31.25 11.25 29.15 11.25 25.5V18.5C11.25 14.85 13.35 12.75 17 12.75H27C30.65 12.75 32.75 14.85 32.75 18.5V25.5C32.75 29.15 30.65 31.25 27 31.25ZM17 14.25C14.14 14.25 12.75 15.64 12.75 18.5V25.5C12.75 28.36 14.14 29.75 17 29.75H27C29.86 29.75 31.25 28.36 31.25 25.5V18.5C31.25 15.64 29.86 14.25 27 14.25H17Z" fill="url(#paint0_linear_51_186)"/>
<path d="M21.9998 22.87C21.1598 22.87 20.3098 22.61 19.6598 22.08L16.5298 19.58C16.2098 19.32 16.1498 18.85 16.4098 18.53C16.6698 18.21 17.1398 18.15 17.4598 18.41L20.5898 20.91C21.3498 21.52 22.6398 21.52 23.3998 20.91L26.5298 18.41C26.8498 18.15 27.3298 18.2 27.5798 18.53C27.8398 18.85 27.7898 19.33 27.4598 19.58L24.3298 22.08C23.6898 22.61 22.8398 22.87 21.9998 22.87Z" fill="url(#paint1_linear_51_186)"/>
<defs>
<linearGradient id="paint0_linear_51_186" x1="11.2381" y1="12.75" x2="33.5737" y2="13.8208" gradientUnits="userSpaceOnUse">
<stop stop-color="#D6D6D6"/>
<stop offset="1" stop-color="#B1B1B1"/>
</linearGradient>
<linearGradient id="paint1_linear_51_186" x1="16.2407" y1="18.2441" x2="28.089" y2="19.4591" gradientUnits="userSpaceOnUse">
<stop stop-color="#D6D6D6"/>
<stop offset="1" stop-color="#B1B1B1"/>
</linearGradient>
</defs>
</svg>
