<svg width="44" height="44" viewBox="0 0 44 44" fill="none" xmlns="http://www.w3.org/2000/svg">
<rect x="0.5" y="0.5" width="43" height="43" rx="9.5" stroke="white" stroke-opacity="0.08"/>
<path d="M27.45 32.75C26.32 32.75 25.13 32.48 23.9 31.96C22.7 31.45 21.49 30.75 20.31 29.9C19.14 29.04 18.01 28.08 16.94 27.03C15.88 25.96 14.92 24.83 14.07 23.67C13.21 22.47 12.52 21.27 12.03 20.11C11.51 18.87 11.25 17.67 11.25 16.54C11.25 15.76 11.39 15.02 11.66 14.33C11.94 13.62 12.39 12.96 13 12.39C13.77 11.63 14.65 11.25 15.59 11.25C15.98 11.25 16.38 11.34 16.72 11.5C17.11 11.68 17.44 11.95 17.68 12.31L20 15.58C20.21 15.87 20.37 16.15 20.48 16.43C20.61 16.73 20.68 17.03 20.68 17.32C20.68 17.7 20.57 18.07 20.36 18.42C20.21 18.69 19.98 18.98 19.69 19.27L19.01 19.98C19.02 20.01 19.03 20.03 19.04 20.05C19.16 20.26 19.4 20.62 19.86 21.16C20.35 21.72 20.81 22.23 21.27 22.7C21.86 23.28 22.35 23.74 22.81 24.12C23.38 24.6 23.75 24.84 23.97 24.95L23.95 25L24.68 24.28C24.99 23.97 25.29 23.74 25.58 23.59C26.13 23.25 26.83 23.19 27.53 23.48C27.79 23.59 28.07 23.74 28.37 23.95L31.69 26.31C32.06 26.56 32.33 26.88 32.49 27.26C32.64 27.64 32.71 27.99 32.71 28.34C32.71 28.82 32.6 29.3 32.39 29.75C32.18 30.2 31.92 30.59 31.59 30.95C31.02 31.58 30.4 32.03 29.68 32.32C28.99 32.6 28.24 32.75 27.45 32.75ZM15.59 12.75C15.04 12.75 14.53 12.99 14.04 13.47C13.58 13.9 13.26 14.37 13.06 14.88C12.85 15.4 12.75 15.95 12.75 16.54C12.75 17.47 12.97 18.48 13.41 19.52C13.86 20.58 14.49 21.68 15.29 22.78C16.09 23.88 17 24.95 18 25.96C19 26.95 20.08 27.87 21.19 28.68C22.27 29.47 23.38 30.11 24.48 30.57C26.19 31.3 27.79 31.47 29.11 30.92C29.62 30.71 30.07 30.39 30.48 29.93C30.71 29.68 30.89 29.41 31.04 29.09C31.16 28.84 31.22 28.58 31.22 28.32C31.22 28.16 31.19 28 31.11 27.82C31.08 27.76 31.02 27.65 30.83 27.52L27.51 25.16C27.31 25.02 27.13 24.92 26.96 24.85C26.74 24.76 26.65 24.67 26.31 24.88C26.11 24.98 25.93 25.13 25.73 25.33L24.97 26.08C24.58 26.46 23.98 26.55 23.52 26.38L23.25 26.26C22.84 26.04 22.36 25.7 21.83 25.25C21.35 24.84 20.83 24.36 20.2 23.74C19.71 23.24 19.22 22.71 18.71 22.12C18.24 21.57 17.9 21.1 17.69 20.71L17.57 20.41C17.51 20.18 17.49 20.05 17.49 19.91C17.49 19.55 17.62 19.23 17.87 18.98L18.62 18.2C18.82 18 18.97 17.81 19.07 17.64C19.15 17.51 19.18 17.4 19.18 17.3C19.18 17.22 19.15 17.1 19.1 16.98C19.03 16.82 18.92 16.64 18.78 16.45L16.46 13.17C16.36 13.03 16.24 12.93 16.09 12.86C15.93 12.79 15.76 12.75 15.59 12.75ZM23.95 25.01L23.79 25.69L24.06 24.99C24.01 24.98 23.97 24.99 23.95 25.01Z" fill="url(#paint0_linear_51_182)"/>
<defs>
<linearGradient id="paint0_linear_51_182" x1="11.2381" y1="11.25" x2="33.5456" y2="12.1685" gradientUnits="userSpaceOnUse">
<stop stop-color="#D6D6D6"/>
<stop offset="1" stop-color="#B1B1B1"/>
</linearGradient>
</defs>
</svg>
