<svg width="24" height="24" viewBox="0 0 24 24" fill="none" xmlns="http://www.w3.org/2000/svg">
<path d="M4.1001 2H19.9001C20.5001 2 21.0001 2.5 20.9001 3.1L19.1001 19.3C19.1001 19.7 18.8001 20 18.4001 20.2L12.3001 21.9C12.1001 22 11.9001 22 11.8001 21.9L5.7001 20.2C5.3001 20.1 5.0001 19.8 5.0001 19.3L3.1001 3.1C3.1001 2.5 3.5001 2 4.1001 2Z" stroke="url(#paint0_linear_222_249)" stroke-width="1.5" stroke-miterlimit="10" stroke-linecap="round" stroke-linejoin="round"/>
<path d="M7.5 7H16.5L15.5 16L12 17L8.5 16L8 14" stroke="url(#paint1_linear_222_249)" stroke-width="1.5" stroke-miterlimit="10" stroke-linecap="round" stroke-linejoin="round"/>
<path d="M8 11H16.1" stroke="url(#paint2_linear_222_249)" stroke-width="1.5" stroke-miterlimit="10" stroke-linecap="round" stroke-linejoin="round"/>
<defs>
<linearGradient id="paint0_linear_222_249" x1="3.09021" y1="2" x2="21.6128" y2="2.6814" gradientUnits="userSpaceOnUse">
<stop stop-color="#D6D6D6"/>
<stop offset="1" stop-color="#B1B1B1"/>
</linearGradient>
<linearGradient id="paint1_linear_222_249" x1="7.49501" y1="7" x2="16.8534" y2="7.34745" gradientUnits="userSpaceOnUse">
<stop stop-color="#D6D6D6"/>
<stop offset="1" stop-color="#B1B1B1"/>
</linearGradient>
<linearGradient id="paint2_linear_222_249" x1="7.9955" y1="11" x2="15.5825" y2="13.5352" gradientUnits="userSpaceOnUse">
<stop stop-color="#D6D6D6"/>
<stop offset="1" stop-color="#B1B1B1"/>
</linearGradient>
</defs>
</svg>
